<svg xmlns="http://www.w3.org/2000/svg" version="1.1" xmlns:xlink="http://www.w3.org/1999/xlink" width="512" height="512" x="0" y="0" viewBox="0 0 32 32" style="enable-background:new 0 0 512 512" xml:space="preserve" class=""><g><path d="M28.415 17.86a1 1 0 0 1-.55 1.303l-2.779 1.13 2.572 1.545a1 1 0 1 1-1.03 1.714l-2.571-1.545.306 2.985a1 1 0 0 1-1.989.204l-.46-4.477L17 17.767V23.5l3.6 2.7a1 1 0 1 1-1.2 1.6L17 26v3a1 1 0 0 1-2 0v-3l-2.4 1.8a1 1 0 0 1-1.2-1.6l3.6-2.7v-5.733l-4.914 2.953-.46 4.476a1 1 0 0 1-.994.898.917.917 0 0 1-.103-.005 1 1 0 0 1-.892-1.097l.307-2.985-2.572 1.545a1 1 0 1 1-1.03-1.713l2.572-1.546-2.779-1.13a1 1 0 0 1 .753-1.852l4.169 1.695L14.059 16l-5.003-3.006-4.168 1.696a1 1 0 0 1-.753-1.853l2.778-1.13-2.571-1.545a1 1 0 1 1 1.03-1.714l2.571 1.545-.307-2.985a1 1 0 1 1 1.99-.204l.46 4.476L15 14.233V8.5l-3.6-2.7a1 1 0 1 1 1.2-1.6L15 6V3a1 1 0 0 1 2 0v3l2.4-1.8a1 1 0 0 1 1.2 1.6L17 8.5v5.733l4.914-2.953.46-4.476a1 1 0 0 1 1.99.204l-.308 2.985 2.572-1.545a1 1 0 1 1 1.03 1.713l-2.572 1.546 2.779 1.13a1 1 0 0 1-.753 1.852l-4.169-1.695L17.941 16l5.003 3.006 4.168-1.695a.999.999 0 0 1 1.303.549Z" style="" fill="#4294ff" data-original="#4294ff"></path></g></svg>