<?xml version="1.0" standalone="no"?>
<!DOCTYPE svg PUBLIC "-//W3C//DTD SVG 20010904//EN"
 "http://www.w3.org/TR/2001/REC-SVG-20010904/DTD/svg10.dtd">
<svg version="1.0" xmlns="http://www.w3.org/2000/svg"
 width="600.000000pt" height="600.000000pt" viewBox="0 0 600.000000 600.000000"
 preserveAspectRatio="xMidYMid meet">
<metadata>
Created by potrace 1.14, written by Peter Selinger 2001-2017
</metadata>
<g transform="translate(0.000000,600.000000) scale(0.100000,-0.100000)"
fill="#000000" stroke="none">
<path d="M1967 4938 c-10 -5 -17 -6 -17 -3 0 10 -74 -32 -92 -52 -10 -10 -24
-37 -32 -60 -39 -112 57 -233 175 -218 133 17 195 159 116 267 -35 47 -119 84
-150 66z"/>
<path d="M2393 4822 c-34 -5 -75 -59 -70 -92 7 -42 29 -70 62 -79 38 -10 58
-4 90 25 61 57 3 160 -82 146z"/>
<path d="M2795 4765 c-49 -17 -80 -42 -104 -86 -46 -81 -7 -189 82 -229 149
-67 292 100 208 243 -33 57 -126 93 -186 72z"/>
<path d="M1462 4735 c-86 -38 -58 -165 37 -165 32 0 44 6 65 31 29 34 31 43
15 89 -8 22 -22 37 -45 46 -39 16 -31 17 -72 -1z"/>
<path d="M1080 4641 c-75 -18 -132 -88 -132 -165 0 -122 122 -200 235 -152
122 52 135 225 22 292 -46 26 -85 34 -125 25z"/>
<path d="M3335 4590 c-172 -38 -310 -126 -427 -271 -42 -52 -46 -55 -64 -41
-68 52 -329 150 -474 177 -101 20 -328 26 -452 12 -135 -14 -315 -67 -448
-130 -57 -27 -198 -107 -225 -129 -240 -187 -367 -338 -479 -571 -76 -155
-109 -274 -141 -492 -8 -52 -8 -246 0 -310 62 -518 375 -958 840 -1179 210
-100 383 -139 625 -140 266 -2 464 45 699 163 60 31 212 130 238 156 11 12 21
7 61 -31 161 -152 399 -247 622 -246 298 0 570 133 748 365 38 48 120 194 134
237 4 13 8 12 31 -3 72 -47 187 -99 249 -111 13 -3 43 -9 68 -14 105 -20 269
-4 390 40 243 87 439 314 495 573 15 67 12 241 -4 320 -49 233 -217 444 -431
542 -89 41 -216 71 -305 72 l-30 1 2 89 c1 50 -5 113 -12 141 -68 259 -297
442 -554 443 -47 0 -102 -3 -123 -6 -45 -8 -145 -45 -176 -65 -12 -8 -24 -13
-26 -11 -1 2 -20 36 -41 74 -69 126 -215 251 -364 311 -126 51 -289 64 -426
34z"/>
<path d="M692 4202 c-36 -28 -41 -91 -11 -125 13 -15 34 -29 47 -32 35 -6 81
15 97 45 43 83 -59 169 -133 112z"/>
<path d="M421 3902 c-46 -22 -88 -75 -96 -120 -19 -115 76 -215 189 -198 104
17 165 115 136 218 -11 37 -54 86 -90 101 -39 16 -105 16 -139 -1z"/>
<path d="M324 3396 c-94 -41 -40 -187 61 -162 75 19 88 133 18 165 -30 14 -41
13 -79 -3z"/>
<path d="M276 3005 c-99 -34 -143 -135 -100 -226 30 -61 73 -91 139 -97 176
-14 250 215 99 308 -40 26 -91 31 -138 15z"/>
<path d="M415 2492 c-54 -11 -84 -75 -58 -125 40 -79 163 -55 165 33 2 57 -52
103 -107 92z"/>
<path d="M558 2130 c-52 -28 -81 -73 -85 -134 -5 -62 16 -107 70 -150 31 -25
46 -30 92 -29 101 1 167 67 168 168 1 125 -133 204 -245 145z"/>
<path d="M5065 1945 c-108 -38 -150 -179 -80 -270 100 -132 317 -64 317 99 -1
128 -119 214 -237 171z"/>
<path d="M4552 1824 c-44 -18 -65 -67 -51 -118 12 -45 50 -71 102 -71 31 0 45
7 68 33 39 43 39 90 2 132 -33 36 -74 44 -121 24z"/>
<path d="M903 1722 c-36 -28 -46 -68 -27 -107 28 -60 98 -69 145 -19 32 34 28
82 -11 117 -35 31 -75 35 -107 9z"/>
<path d="M3010 1664 c-84 -39 -119 -134 -81 -220 43 -97 172 -129 255 -63 105
82 74 254 -54 294 -43 14 -72 11 -120 -11z"/>
<path d="M4072 1564 c-120 -60 -134 -218 -26 -300 33 -25 46 -29 103 -29 54 0
72 5 99 25 137 102 80 310 -89 324 -28 2 -55 -4 -87 -20z"/>
<path d="M1289 1551 c-78 -25 -124 -94 -117 -175 8 -99 86 -164 181 -153 127
16 192 153 122 259 -39 59 -121 89 -186 69z"/>
<path d="M3515 1427 c-30 -30 -34 -40 -31 -71 7 -51 23 -76 60 -91 72 -30 141
18 139 97 -1 53 -35 87 -91 95 -37 5 -45 2 -77 -30z"/>
<path d="M2653 1410 c-46 -19 -60 -87 -28 -136 32 -49 137 -31 152 26 22 80
-47 141 -124 110z"/>
<path d="M2158 1370 c-46 -25 -88 -93 -88 -144 0 -79 50 -145 127 -167 139
-38 258 115 188 245 -41 76 -149 107 -227 66z"/>
<path d="M1742 1335 c-69 -30 -66 -129 5 -158 45 -18 84 -5 107 34 22 37 20
69 -7 100 -28 34 -63 42 -105 24z"/>
</g>
</svg>
